<?xml version="1.0" encoding="UTF-8"?>
<svg id="Layer_1" data-name="Layer 1" xmlns="http://www.w3.org/2000/svg" viewBox="0 0 23.68 5.05">
  <defs>
    <style>
      .cls-1 {
        stroke-width: 0px;
      }

      .cls-1, .cls-2 {
        fill: #3a54a3;
      }

      .cls-3 {
        letter-spacing: .03em;
      }

      .cls-2 {
        font-family: NEOTERIC, NEOTERIC;
        font-size: 4.32px;
      }

      .cls-4 {
        letter-spacing: .03em;
      }
    </style>
  </defs>
  <path class="cls-1" d="m4.82,2.19c-.06-.45-.24-.86-.52-1.19.02-.04.04-.08.04-.13,0-.14-.12-.26-.27-.26-.05,0-.1.02-.14.04-.34-.25-.75-.42-1.19-.46-.03-.11-.13-.19-.26-.19s-.23.09-.26.2c-.43.06-.82.23-1.14.48-.04-.03-.1-.05-.15-.05-.15,0-.27.12-.27.26,0,.06.02.11.05.15-.26.32-.43.71-.48,1.14-.12.02-.22.13-.22.26s.09.23.21.26c.04.43.21.83.47,1.16-.03.04-.05.09-.05.15,0,.14.12.26.27.26.05,0,.1-.02.14-.04.33.27.73.45,1.17.51.02.12.13.21.26.21s.23-.09.26-.2c.45-.04.86-.21,1.2-.47.04.03.09.04.14.04.15,0,.27-.12.27-.26,0-.05-.01-.09-.04-.13.28-.34.47-.76.52-1.22.11-.03.2-.13.2-.25s-.09-.23-.2-.26Zm-.75-1.06c.05,0,.11-.02.15-.04.26.31.43.69.48,1.1-.07.02-.13.06-.17.12l-.68-.25s0-.01,0-.02c0-.09-.04-.17-.11-.21l.3-.69s.02,0,.03,0Zm-.14-.04l-.3.69s-.03,0-.04,0c-.11,0-.21.07-.25.17l-1.23-.28s0-.04,0-.05l1.74-.6s.05.06.08.08Zm-1.45-.57c.13,0,.24-.09.26-.21.41.04.79.19,1.11.43-.02.04-.04.09-.04.14,0,.01,0,.02,0,.03l-1.75.6s-.03-.03-.05-.05l.46-.94s0,0,0,0Zm-.26-.2c.02.07.07.14.13.17l-.45.92s-.04,0-.05,0c-.06,0-.11.02-.15.05l-.53-.44s.03-.07.03-.11c0-.05-.01-.09-.03-.13.3-.24.67-.4,1.07-.45ZM.53,2.39l1.1-.56c.05.06.12.1.21.1l.38,1.19s-.04.04-.06.06l-1.64-.67s0-.05,0-.07c0-.02,0-.04,0-.06Zm.26-1.26s.08.03.13.03c.06,0,.12-.02.17-.06l.53.43s-.03.08-.03.13c0,.02,0,.04,0,.05l-1.11.56s-.08-.08-.14-.09c.05-.4.21-.76.45-1.06Zm.11,2.62s-.09.01-.13.03c-.24-.31-.39-.68-.44-1.08.05-.01.1-.04.14-.08l1.65.68s0,.02,0,.03c0,.03,0,.06.02.09l-1,.47c-.04-.09-.13-.14-.24-.14Zm1.32.87c-.41-.06-.79-.22-1.09-.47.03-.04.04-.09.04-.14,0,0,0,0,0,0l1.04-.49s.06.05.09.06l.06.88c-.07.03-.12.09-.14.17Zm.11-1.55l-.37-1.17c.06-.03.1-.07.13-.12l1.24.28s.02.08.04.12l-.85.92s-.08-.03-.13-.03c-.02,0-.04,0-.06,0Zm.4,1.56c-.03-.12-.13-.2-.26-.2,0,0,0,0,0,0l-.06-.84c.06,0,.12-.04.16-.08l1.24.54s0,0,0,0c0,.05.01.1.04.14-.32.24-.7.4-1.12.44Zm1.11-.69l-1.21-.52s.01-.05.01-.08c0-.06-.02-.11-.05-.15l.85-.92s.09.04.14.04c.01,0,.02,0,.03,0l.32,1.54s-.07.06-.09.1Zm.38-.1s-.09-.04-.15-.04c-.01,0-.02,0-.03,0l-.32-1.54s.06-.05.08-.09l.68.25s0,.02,0,.02c0,.13.09.23.21.26-.05.43-.22.82-.48,1.14Z"/>
  <text class="cls-2" transform="translate(6.46 3.91) scale(1.14 1)"><tspan x="0" y="0">AI </tspan><tspan class="cls-4" x="4.81" y="0">C</tspan><tspan class="cls-3" x="7.54" y="0">L</tspan><tspan x="9.83" y="0">UB</tspan></text>
</svg>