<?xml version="1.0" encoding="UTF-8"?>
<svg xmlns="http://www.w3.org/2000/svg" xmlns:xlink="http://www.w3.org/1999/xlink" width="32px" height="7px" viewBox="0 0 32 7" version="1.1">
<g id="surface1">
<path style=" stroke:none;fill-rule:nonzero;fill:rgb(22.745098%,32.941176%,63.921569%);fill-opacity:1;" d="M 6.730469 3.042969 C 6.652344 2.425781 6.414062 1.867188 6.046875 1.414062 C 6.074219 1.363281 6.097656 1.308594 6.097656 1.234375 C 6.097656 1.042969 5.941406 0.882812 5.742188 0.882812 C 5.675781 0.882812 5.613281 0.910156 5.558594 0.9375 C 5.113281 0.59375 4.566406 0.363281 3.988281 0.308594 C 3.949219 0.152344 3.816406 0.046875 3.644531 0.046875 C 3.472656 0.046875 3.34375 0.167969 3.300781 0.324219 C 2.730469 0.402344 2.21875 0.632812 1.796875 0.976562 C 1.742188 0.9375 1.664062 0.910156 1.597656 0.910156 C 1.402344 0.910156 1.242188 1.070312 1.242188 1.261719 C 1.242188 1.347656 1.269531 1.414062 1.308594 1.46875 C 0.960938 1.90625 0.738281 2.441406 0.671875 3.027344 C 0.511719 3.054688 0.382812 3.203125 0.382812 3.386719 C 0.382812 3.5625 0.5 3.695312 0.65625 3.734375 C 0.710938 4.328125 0.933594 4.875 1.28125 5.328125 C 1.242188 5.382812 1.21875 5.449219 1.21875 5.53125 C 1.21875 5.726562 1.375 5.886719 1.574219 5.886719 C 1.636719 5.886719 1.703125 5.859375 1.757812 5.835938 C 2.191406 6.199219 2.71875 6.449219 3.300781 6.527344 C 3.328125 6.691406 3.472656 6.820312 3.644531 6.820312 C 3.816406 6.820312 3.949219 6.691406 3.988281 6.542969 C 4.578125 6.488281 5.125 6.257812 5.574219 5.902344 C 5.625 5.941406 5.691406 5.957031 5.757812 5.957031 C 5.953125 5.957031 6.113281 5.792969 6.113281 5.597656 C 6.113281 5.53125 6.097656 5.476562 6.058594 5.421875 C 6.425781 4.957031 6.675781 4.382812 6.742188 3.757812 C 6.886719 3.710938 7.011719 3.574219 7.011719 3.414062 C 7.011719 3.242188 6.886719 3.09375 6.742188 3.054688 Z M 5.742188 1.589844 C 5.808594 1.589844 5.886719 1.5625 5.941406 1.535156 C 6.28125 1.960938 6.507812 2.480469 6.574219 3.042969 C 6.480469 3.066406 6.402344 3.121094 6.347656 3.203125 L 5.453125 2.867188 C 5.453125 2.867188 5.453125 2.851562 5.453125 2.839844 C 5.453125 2.710938 5.402344 2.601562 5.308594 2.546875 L 5.703125 1.605469 C 5.703125 1.605469 5.730469 1.605469 5.742188 1.605469 Z M 5.558594 1.535156 L 5.164062 2.480469 C 5.164062 2.480469 5.125 2.480469 5.113281 2.480469 C 4.960938 2.480469 4.828125 2.574219 4.777344 2.710938 L 3.15625 2.332031 C 3.15625 2.332031 3.15625 2.277344 3.15625 2.257812 L 5.453125 1.441406 C 5.453125 1.441406 5.519531 1.523438 5.558594 1.550781 Z M 3.644531 0.753906 C 3.816406 0.753906 3.960938 0.632812 3.988281 0.472656 C 4.527344 0.523438 5.03125 0.726562 5.453125 1.058594 C 5.425781 1.113281 5.402344 1.179688 5.402344 1.246094 C 5.402344 1.261719 5.402344 1.273438 5.402344 1.292969 L 3.09375 2.109375 C 3.09375 2.109375 3.050781 2.070312 3.027344 2.042969 L 3.632812 0.753906 Z M 3.300781 0.484375 C 3.328125 0.578125 3.394531 0.671875 3.472656 0.714844 L 2.875 1.976562 C 2.875 1.976562 2.824219 1.976562 2.808594 1.976562 C 2.730469 1.976562 2.664062 2.003906 2.613281 2.042969 L 1.914062 1.441406 C 1.914062 1.441406 1.953125 1.347656 1.953125 1.292969 C 1.953125 1.21875 1.941406 1.164062 1.914062 1.113281 C 2.308594 0.78125 2.796875 0.566406 3.328125 0.496094 Z M 1.074219 3.316406 L 2.519531 2.546875 C 2.585938 2.628906 2.675781 2.683594 2.796875 2.683594 L 3.300781 4.316406 C 3.300781 4.316406 3.25 4.371094 3.222656 4.398438 L 1.058594 3.480469 C 1.058594 3.480469 1.058594 3.414062 1.058594 3.386719 C 1.058594 3.359375 1.058594 3.332031 1.058594 3.304688 Z M 1.414062 1.589844 C 1.414062 1.589844 1.519531 1.632812 1.585938 1.632812 C 1.664062 1.632812 1.742188 1.605469 1.808594 1.550781 L 2.507812 2.136719 C 2.507812 2.136719 2.46875 2.246094 2.46875 2.320312 C 2.46875 2.347656 2.46875 2.375 2.46875 2.386719 L 1.007812 3.148438 C 1.007812 3.148438 0.894531 3.042969 0.816406 3.027344 C 0.882812 2.480469 1.097656 1.988281 1.414062 1.578125 Z M 1.558594 5.171875 C 1.558594 5.171875 1.441406 5.1875 1.386719 5.214844 C 1.074219 4.796875 0.867188 4.289062 0.800781 3.734375 C 0.867188 3.722656 0.933594 3.683594 0.988281 3.628906 L 3.171875 4.558594 C 3.171875 4.558594 3.171875 4.585938 3.171875 4.597656 C 3.171875 4.640625 3.171875 4.679688 3.199219 4.722656 L 1.875 5.367188 C 1.824219 5.246094 1.703125 5.171875 1.558594 5.171875 Z M 3.300781 6.367188 C 2.757812 6.285156 2.257812 6.0625 1.863281 5.726562 C 1.902344 5.664062 1.914062 5.597656 1.914062 5.53125 L 3.289062 4.863281 C 3.289062 4.863281 3.367188 4.929688 3.40625 4.945312 L 3.488281 6.144531 C 3.394531 6.183594 3.328125 6.273438 3.300781 6.378906 Z M 3.449219 4.25 L 2.953125 2.644531 C 3.039062 2.601562 3.09375 2.546875 3.132812 2.480469 L 4.761719 2.867188 C 4.761719 2.867188 4.789062 2.972656 4.816406 3.027344 L 3.699219 4.289062 C 3.699219 4.289062 3.59375 4.25 3.527344 4.25 C 3.5 4.25 3.472656 4.25 3.449219 4.25 Z M 3.972656 6.378906 C 3.933594 6.21875 3.800781 6.105469 3.632812 6.105469 L 3.550781 4.957031 C 3.632812 4.957031 3.710938 4.902344 3.761719 4.847656 L 5.402344 5.585938 C 5.402344 5.652344 5.414062 5.726562 5.453125 5.78125 C 5.03125 6.105469 4.527344 6.328125 3.972656 6.378906 Z M 5.441406 5.4375 L 3.84375 4.722656 C 3.84375 4.722656 3.855469 4.652344 3.855469 4.613281 C 3.855469 4.53125 3.828125 4.464844 3.789062 4.410156 L 4.90625 3.148438 C 4.90625 3.148438 5.03125 3.203125 5.097656 3.203125 C 5.113281 3.203125 5.125 3.203125 5.136719 3.203125 L 5.558594 5.316406 C 5.558594 5.316406 5.46875 5.394531 5.441406 5.449219 Z M 5.941406 5.300781 C 5.941406 5.300781 5.824219 5.246094 5.742188 5.246094 C 5.730469 5.246094 5.71875 5.246094 5.703125 5.246094 L 5.28125 3.136719 C 5.28125 3.136719 5.363281 3.066406 5.386719 3.015625 L 6.28125 3.359375 C 6.28125 3.359375 6.28125 3.386719 6.28125 3.386719 C 6.28125 3.5625 6.402344 3.695312 6.558594 3.734375 C 6.492188 4.328125 6.269531 4.863281 5.925781 5.300781 Z M 5.941406 5.300781 "/>
<path style=" stroke:none;fill-rule:nonzero;fill:rgb(22.745098%,32.941176%,63.921569%);fill-opacity:1;" d="M 11.105469 1.671875 L 10.238281 3.800781 L 12 3.800781 Z M 10.761719 1.078125 L 11.472656 1.078125 L 13.289062 5.394531 L 12.632812 5.394531 L 12.183594 4.289062 L 10.050781 4.289062 L 9.632812 5.394531 L 8.949219 5.394531 Z M 10.761719 1.078125 "/>
<path style=" stroke:none;fill-rule:nonzero;fill:rgb(22.745098%,32.941176%,63.921569%);fill-opacity:1;" d="M 13.972656 1.078125 L 14.628906 1.078125 L 14.628906 5.394531 L 13.972656 5.394531 Z M 13.972656 1.078125 "/>
<path style=" stroke:none;fill-rule:nonzero;fill:rgb(22.745098%,32.941176%,63.921569%);fill-opacity:1;" d="M 20.324219 1.429688 L 20.324219 2.023438 C 20.113281 1.847656 19.882812 1.710938 19.636719 1.617188 C 19.386719 1.53125 19.125 1.480469 18.847656 1.480469 C 18.300781 1.480469 17.886719 1.636719 17.613281 1.941406 C 17.328125 2.25 17.191406 2.683594 17.191406 3.234375 C 17.191406 3.816406 17.328125 4.253906 17.613281 4.558594 C 17.886719 4.847656 18.300781 4.988281 18.847656 4.988281 C 19.125 4.988281 19.386719 4.949219 19.636719 4.855469 C 19.882812 4.765625 20.113281 4.632812 20.324219 4.449219 L 20.324219 5.070312 C 20.09375 5.199219 19.855469 5.300781 19.613281 5.367188 C 19.363281 5.433594 19.097656 5.476562 18.824219 5.476562 C 18.097656 5.476562 17.53125 5.28125 17.113281 4.882812 C 16.703125 4.492188 16.507812 3.9375 16.507812 3.234375 C 16.507812 2.554688 16.703125 2.015625 17.113281 1.617188 C 17.53125 1.207031 18.097656 0.996094 18.824219 0.996094 C 19.097656 0.996094 19.363281 1.035156 19.613281 1.105469 C 19.875 1.179688 20.113281 1.285156 20.324219 1.429688 Z M 20.324219 1.429688 "/>
<path style=" stroke:none;fill-rule:nonzero;fill:rgb(22.745098%,32.941176%,63.921569%);fill-opacity:1;" d="M 20.875 1.078125 L 21.53125 1.078125 L 21.53125 4.910156 L 23.824219 4.910156 L 23.824219 5.394531 L 20.875 5.394531 Z M 20.875 1.078125 "/>
<path style=" stroke:none;fill-rule:nonzero;fill:rgb(22.745098%,32.941176%,63.921569%);fill-opacity:1;" d="M 24.242188 1.078125 L 24.902344 1.078125 L 24.902344 3.695312 C 24.902344 4.167969 24.988281 4.503906 25.164062 4.71875 C 25.355469 4.921875 25.652344 5.015625 26.058594 5.015625 C 26.480469 5.015625 26.777344 4.921875 26.953125 4.71875 C 27.144531 4.503906 27.242188 4.167969 27.242188 3.695312 L 27.242188 1.078125 L 27.875 1.078125 L 27.875 3.777344 C 27.875 4.335938 27.71875 4.761719 27.402344 5.042969 C 27.097656 5.335938 26.652344 5.476562 26.058594 5.476562 C 25.460938 5.476562 25.007812 5.335938 24.691406 5.042969 C 24.386719 4.761719 24.242188 4.335938 24.242188 3.777344 Z M 24.242188 1.078125 "/>
<path style=" stroke:none;fill-rule:nonzero;fill:rgb(22.745098%,32.941176%,63.921569%);fill-opacity:1;" d="M 29.738281 3.34375 L 29.738281 4.910156 L 30.765625 4.910156 C 31.09375 4.910156 31.34375 4.847656 31.5 4.71875 C 31.671875 4.597656 31.765625 4.394531 31.765625 4.125 C 31.765625 3.855469 31.671875 3.660156 31.5 3.53125 C 31.34375 3.410156 31.09375 3.34375 30.765625 3.34375 Z M 29.738281 1.5625 L 29.738281 2.859375 L 30.683594 2.859375 C 31 2.859375 31.222656 2.804688 31.371094 2.695312 C 31.527344 2.589844 31.605469 2.425781 31.605469 2.210938 C 31.605469 1.996094 31.527344 1.832031 31.371094 1.726562 C 31.222656 1.617188 31 1.5625 30.683594 1.5625 Z M 29.078125 1.078125 L 30.710938 1.078125 C 31.199219 1.078125 31.578125 1.179688 31.84375 1.375 C 32.105469 1.554688 32.238281 1.820312 32.238281 2.15625 C 32.238281 2.414062 32.164062 2.617188 32.027344 2.777344 C 31.902344 2.9375 31.710938 3.039062 31.449219 3.074219 C 31.765625 3.128906 32.007812 3.257812 32.183594 3.453125 C 32.355469 3.652344 32.449219 3.898438 32.449219 4.179688 C 32.449219 4.578125 32.296875 4.882812 32 5.097656 C 31.71875 5.300781 31.316406 5.394531 30.789062 5.394531 L 29.078125 5.394531 Z M 29.078125 1.078125 "/>
</g>
</svg>
